# xmcd
#
# Track frame offsets:
#	150
#	14100
#	30474
#	46779
#	61369
#	80702
#	94067
#	110006
#	125471
#	137586
#	150057
#	165516
#
# Disc length: 2410
#
# Revision: 5
# Processed by: cddbd v1.5.1PL0 Copyright (c) Steve Scherf et al.
# Submitted via: CDex 1.40Beta8
# Normalized: r4:DSETVAR1,TDELIM( - )
#
DISCID=9009680c
DTITLE=Various Artist - Quality Farm and Country Fathers Day Special Edition
DYEAR=2000
DGENRE=Country
TTITLE0=Tim McGraw - She Never Lets It Go To Her Heart
TTITLE1=Leann Rimes - You Light Up My Life
TTITLE2=David Kersh - If I Never Stop Loving You
TTITLE3=Sawyer Brown - Some Girls Do
TTITLE4=Hank Williams Jr. - A Country Boy Can Survive
TTITLE5=Hal Ketchum - Some Girls Do
TTITLE6=Jeff Carson - The Car
TTITLE7=Steve Holy - Don't Make Me Beg
TTITLE8=Junior Brown - Highway Patrol
TTITLE9=Trini Trigs - Horse to Mexico
TTITLE10=Desert Rose Band - One Step Forward
TTITLE11=Boy Howdy - They Don't Make 'Em Like That Anymore
EXTD=YEAR: 2000 ID3G: 2
EXTT0=
EXTT1=
EXTT2=
EXTT3=
EXTT4=
EXTT5=
EXTT6=
EXTT7=
EXTT8=
EXTT9=
EXTT10=
EXTT11=
PLAYORDER=
